<mxfile host="app.diagrams.net" agent="Mozilla/5.0 (Windows NT 10.0; Win64; x64) AppleWebKit/537.36 (KHTML, like Gecko) Chrome/129.0.0.0 Safari/537.36" version="24.7.17">
  <diagram name="Страница — 1" id="BYZZg4gn-MK3XCf_8iRn">
    <mxGraphModel dx="2785" dy="821" grid="0" gridSize="10" guides="1" tooltips="1" connect="1" arrows="1" fold="1" page="0" pageScale="1" pageWidth="1169" pageHeight="827" math="0" shadow="0">
      <root>
        <mxCell id="0" />
        <mxCell id="1" parent="0" />
        <mxCell id="q_sG9YHpF0HVxiTM0cFI-21" value="" style="endArrow=none;html=1;rounded=1;jumpStyle=none;shadow=0;" edge="1" parent="1" source="q_sG9YHpF0HVxiTM0cFI-18" target="q_sG9YHpF0HVxiTM0cFI-4">
          <mxGeometry width="50" height="50" relative="1" as="geometry">
            <mxPoint x="540" y="510" as="sourcePoint" />
            <mxPoint x="590" y="460" as="targetPoint" />
          </mxGeometry>
        </mxCell>
        <mxCell id="q_sG9YHpF0HVxiTM0cFI-1" value="Зарегистрированный пользователь" style="shape=umlActor;verticalLabelPosition=bottom;verticalAlign=top;html=1;outlineConnect=0;rounded=1;" vertex="1" parent="1">
          <mxGeometry x="430" y="160" width="30" height="60" as="geometry" />
        </mxCell>
        <mxCell id="q_sG9YHpF0HVxiTM0cFI-2" value="Сотрудник" style="shape=umlActor;verticalLabelPosition=bottom;verticalAlign=top;html=1;outlineConnect=0;rounded=1;" vertex="1" parent="1">
          <mxGeometry x="430" y="330" width="30" height="60" as="geometry" />
        </mxCell>
        <mxCell id="q_sG9YHpF0HVxiTM0cFI-3" value="Незарегистрированный ползователь" style="shape=umlActor;verticalLabelPosition=bottom;verticalAlign=top;html=1;outlineConnect=0;rounded=1;" vertex="1" parent="1">
          <mxGeometry x="700" y="150" width="30" height="60" as="geometry" />
        </mxCell>
        <mxCell id="q_sG9YHpF0HVxiTM0cFI-4" value="Клиент" style="shape=umlActor;verticalLabelPosition=bottom;verticalAlign=top;html=1;outlineConnect=0;rounded=1;" vertex="1" parent="1">
          <mxGeometry x="1029.5" y="360" width="30" height="60" as="geometry" />
        </mxCell>
        <mxCell id="q_sG9YHpF0HVxiTM0cFI-6" value="Администратор" style="shape=umlActor;verticalLabelPosition=bottom;verticalAlign=top;html=1;outlineConnect=0;rounded=1;" vertex="1" parent="1">
          <mxGeometry x="130" y="320" width="30" height="60" as="geometry" />
        </mxCell>
        <mxCell id="q_sG9YHpF0HVxiTM0cFI-7" value="Авторизация" style="ellipse;whiteSpace=wrap;html=1;rounded=1;" vertex="1" parent="1">
          <mxGeometry x="130" y="160" width="90" height="60" as="geometry" />
        </mxCell>
        <mxCell id="q_sG9YHpF0HVxiTM0cFI-9" value="Регистрация" style="ellipse;whiteSpace=wrap;html=1;rounded=1;" vertex="1" parent="1">
          <mxGeometry x="917.5" y="150" width="90" height="60" as="geometry" />
        </mxCell>
        <mxCell id="q_sG9YHpF0HVxiTM0cFI-10" value="" style="endArrow=none;html=1;rounded=1;" edge="1" parent="1" source="q_sG9YHpF0HVxiTM0cFI-3" target="q_sG9YHpF0HVxiTM0cFI-9">
          <mxGeometry width="50" height="50" relative="1" as="geometry">
            <mxPoint x="-12.5" y="350" as="sourcePoint" />
            <mxPoint x="37.5" y="300" as="targetPoint" />
          </mxGeometry>
        </mxCell>
        <mxCell id="q_sG9YHpF0HVxiTM0cFI-11" value="" style="endArrow=none;html=1;rounded=1;" edge="1" parent="1" source="q_sG9YHpF0HVxiTM0cFI-7" target="q_sG9YHpF0HVxiTM0cFI-1">
          <mxGeometry width="50" height="50" relative="1" as="geometry">
            <mxPoint x="640" y="139.55" as="sourcePoint" />
            <mxPoint x="490" y="139.55" as="targetPoint" />
          </mxGeometry>
        </mxCell>
        <mxCell id="q_sG9YHpF0HVxiTM0cFI-12" value="" style="endArrow=classic;html=1;rounded=1;" edge="1" parent="1" source="q_sG9YHpF0HVxiTM0cFI-6" target="q_sG9YHpF0HVxiTM0cFI-1">
          <mxGeometry width="50" height="50" relative="1" as="geometry">
            <mxPoint x="-80" y="400" as="sourcePoint" />
            <mxPoint x="-30" y="350" as="targetPoint" />
          </mxGeometry>
        </mxCell>
        <mxCell id="q_sG9YHpF0HVxiTM0cFI-13" value="" style="endArrow=classic;html=1;rounded=1;" edge="1" parent="1" source="q_sG9YHpF0HVxiTM0cFI-2" target="q_sG9YHpF0HVxiTM0cFI-1">
          <mxGeometry width="50" height="50" relative="1" as="geometry">
            <mxPoint x="170" y="349" as="sourcePoint" />
            <mxPoint x="430" y="161" as="targetPoint" />
          </mxGeometry>
        </mxCell>
        <mxCell id="q_sG9YHpF0HVxiTM0cFI-14" value="" style="endArrow=classic;html=1;rounded=1;" edge="1" parent="1" source="q_sG9YHpF0HVxiTM0cFI-4" target="q_sG9YHpF0HVxiTM0cFI-1">
          <mxGeometry width="50" height="50" relative="1" as="geometry">
            <mxPoint x="180" y="359" as="sourcePoint" />
            <mxPoint x="440" y="171" as="targetPoint" />
          </mxGeometry>
        </mxCell>
        <mxCell id="q_sG9YHpF0HVxiTM0cFI-15" value="Оплата госпошлины" style="ellipse;whiteSpace=wrap;html=1;rounded=1;" vertex="1" parent="1">
          <mxGeometry x="793" y="860" width="113" height="60" as="geometry" />
        </mxCell>
        <mxCell id="q_sG9YHpF0HVxiTM0cFI-18" value="Подача заявления" style="ellipse;whiteSpace=wrap;html=1;rounded=1;" vertex="1" parent="1">
          <mxGeometry x="900" y="530" width="90" height="60" as="geometry" />
        </mxCell>
        <mxCell id="q_sG9YHpF0HVxiTM0cFI-19" value="Прикрепление необходимых документов" style="ellipse;whiteSpace=wrap;html=1;rounded=1;" vertex="1" parent="1">
          <mxGeometry x="940" y="850" width="140.5" height="60" as="geometry" />
        </mxCell>
        <mxCell id="q_sG9YHpF0HVxiTM0cFI-25" value="include" style="endArrow=open;endSize=12;dashed=1;html=1;rounded=1;" edge="1" parent="1" source="q_sG9YHpF0HVxiTM0cFI-19" target="q_sG9YHpF0HVxiTM0cFI-18">
          <mxGeometry x="0.0044" width="160" relative="1" as="geometry">
            <mxPoint x="465" y="520" as="sourcePoint" />
            <mxPoint x="625" y="520" as="targetPoint" />
            <mxPoint as="offset" />
          </mxGeometry>
        </mxCell>
        <mxCell id="q_sG9YHpF0HVxiTM0cFI-26" value="include" style="endArrow=open;endSize=12;dashed=1;html=1;rounded=1;" edge="1" parent="1" source="q_sG9YHpF0HVxiTM0cFI-15" target="q_sG9YHpF0HVxiTM0cFI-18">
          <mxGeometry x="0.0033" width="160" relative="1" as="geometry">
            <mxPoint x="588" y="664" as="sourcePoint" />
            <mxPoint x="759" y="533" as="targetPoint" />
            <mxPoint as="offset" />
          </mxGeometry>
        </mxCell>
        <mxCell id="q_sG9YHpF0HVxiTM0cFI-30" value="Управление заявлениями клиентов" style="ellipse;whiteSpace=wrap;html=1;rounded=1;" vertex="1" parent="1">
          <mxGeometry x="478" y="563" width="120" height="60" as="geometry" />
        </mxCell>
        <mxCell id="q_sG9YHpF0HVxiTM0cFI-35" value="" style="endArrow=none;html=1;rounded=1;jumpStyle=none;shadow=0;" edge="1" parent="1" source="q_sG9YHpF0HVxiTM0cFI-30" target="q_sG9YHpF0HVxiTM0cFI-2">
          <mxGeometry width="50" height="50" relative="1" as="geometry">
            <mxPoint x="500" y="458" as="sourcePoint" />
            <mxPoint x="538" y="400" as="targetPoint" />
          </mxGeometry>
        </mxCell>
        <mxCell id="q_sG9YHpF0HVxiTM0cFI-38" value="Формирование отчетов" style="ellipse;whiteSpace=wrap;html=1;rounded=1;" vertex="1" parent="1">
          <mxGeometry x="310" y="563" width="120" height="60" as="geometry" />
        </mxCell>
        <mxCell id="q_sG9YHpF0HVxiTM0cFI-39" value="" style="endArrow=none;html=1;rounded=1;jumpStyle=none;shadow=0;" edge="1" parent="1" source="q_sG9YHpF0HVxiTM0cFI-38" target="q_sG9YHpF0HVxiTM0cFI-2">
          <mxGeometry width="50" height="50" relative="1" as="geometry">
            <mxPoint x="315" y="473" as="sourcePoint" />
            <mxPoint x="250" y="350" as="targetPoint" />
          </mxGeometry>
        </mxCell>
        <mxCell id="q_sG9YHpF0HVxiTM0cFI-41" value="Получение отчетов" style="ellipse;whiteSpace=wrap;html=1;rounded=1;" vertex="1" parent="1">
          <mxGeometry x="-110" y="510" width="120" height="60" as="geometry" />
        </mxCell>
        <mxCell id="q_sG9YHpF0HVxiTM0cFI-42" value="Отчеты, связанные с пользователями системы" style="ellipse;whiteSpace=wrap;html=1;rounded=1;" vertex="1" parent="1">
          <mxGeometry x="-420" y="690" width="150" height="60" as="geometry" />
        </mxCell>
        <mxCell id="q_sG9YHpF0HVxiTM0cFI-43" value="Управление пользователями" style="ellipse;whiteSpace=wrap;html=1;rounded=1;" vertex="1" parent="1">
          <mxGeometry x="-180" y="240" width="120" height="60" as="geometry" />
        </mxCell>
        <mxCell id="q_sG9YHpF0HVxiTM0cFI-44" value="Настройка системы" style="ellipse;whiteSpace=wrap;html=1;rounded=1;" vertex="1" parent="1">
          <mxGeometry x="-245" y="320" width="120" height="60" as="geometry" />
        </mxCell>
        <mxCell id="q_sG9YHpF0HVxiTM0cFI-46" value="" style="endArrow=none;html=1;rounded=1;" edge="1" parent="1" source="q_sG9YHpF0HVxiTM0cFI-6" target="q_sG9YHpF0HVxiTM0cFI-44">
          <mxGeometry width="50" height="50" relative="1" as="geometry">
            <mxPoint x="140" y="420" as="sourcePoint" />
            <mxPoint x="-10" y="420" as="targetPoint" />
          </mxGeometry>
        </mxCell>
        <mxCell id="q_sG9YHpF0HVxiTM0cFI-47" value="" style="endArrow=none;html=1;rounded=1;" edge="1" parent="1" source="q_sG9YHpF0HVxiTM0cFI-6" target="q_sG9YHpF0HVxiTM0cFI-43">
          <mxGeometry width="50" height="50" relative="1" as="geometry">
            <mxPoint x="140" y="280" as="sourcePoint" />
            <mxPoint x="-10" y="280" as="targetPoint" />
          </mxGeometry>
        </mxCell>
        <mxCell id="q_sG9YHpF0HVxiTM0cFI-48" value="" style="endArrow=none;html=1;rounded=1;" edge="1" parent="1" source="q_sG9YHpF0HVxiTM0cFI-6" target="q_sG9YHpF0HVxiTM0cFI-41">
          <mxGeometry width="50" height="50" relative="1" as="geometry">
            <mxPoint x="262" y="420" as="sourcePoint" />
            <mxPoint x="110" y="476" as="targetPoint" />
          </mxGeometry>
        </mxCell>
        <mxCell id="q_sG9YHpF0HVxiTM0cFI-49" value="extend" style="endArrow=open;endSize=12;dashed=1;html=1;rounded=1;" edge="1" parent="1" source="q_sG9YHpF0HVxiTM0cFI-42" target="q_sG9YHpF0HVxiTM0cFI-41">
          <mxGeometry x="-0.0015" width="160" relative="1" as="geometry">
            <mxPoint x="35" y="728" as="sourcePoint" />
            <mxPoint x="150" y="610" as="targetPoint" />
            <mxPoint as="offset" />
          </mxGeometry>
        </mxCell>
        <mxCell id="q_sG9YHpF0HVxiTM0cFI-50" value="Отчеты о количестве поставленных на учет ТС за период" style="ellipse;whiteSpace=wrap;html=1;rounded=1;" vertex="1" parent="1">
          <mxGeometry x="-470" y="600" width="150" height="60" as="geometry" />
        </mxCell>
        <mxCell id="q_sG9YHpF0HVxiTM0cFI-51" value="extend" style="endArrow=open;endSize=12;dashed=1;html=1;rounded=1;" edge="1" parent="1" source="q_sG9YHpF0HVxiTM0cFI-50" target="q_sG9YHpF0HVxiTM0cFI-41">
          <mxGeometry x="-0.0015" width="160" relative="1" as="geometry">
            <mxPoint x="-153.5" y="621" as="sourcePoint" />
            <mxPoint x="-46.5" y="459" as="targetPoint" />
            <mxPoint as="offset" />
          </mxGeometry>
        </mxCell>
        <mxCell id="q_sG9YHpF0HVxiTM0cFI-54" value="Отчеты о количестве зарегистрированных&amp;nbsp;" style="ellipse;whiteSpace=wrap;html=1;rounded=1;" vertex="1" parent="1">
          <mxGeometry x="295" y="756" width="150" height="60" as="geometry" />
        </mxCell>
        <mxCell id="q_sG9YHpF0HVxiTM0cFI-55" value="extend" style="endArrow=open;endSize=12;dashed=1;html=1;rounded=1;" edge="1" parent="1" source="q_sG9YHpF0HVxiTM0cFI-54" target="q_sG9YHpF0HVxiTM0cFI-38">
          <mxGeometry x="0.002" width="160" relative="1" as="geometry">
            <mxPoint x="202" y="749" as="sourcePoint" />
            <mxPoint x="220" y="560" as="targetPoint" />
            <mxPoint as="offset" />
          </mxGeometry>
        </mxCell>
        <mxCell id="q_sG9YHpF0HVxiTM0cFI-56" value="Управление личным кабинетом" style="ellipse;whiteSpace=wrap;html=1;rounded=1;" vertex="1" parent="1">
          <mxGeometry x="1069" y="520" width="100" height="60" as="geometry" />
        </mxCell>
        <mxCell id="q_sG9YHpF0HVxiTM0cFI-58" value="" style="endArrow=none;html=1;rounded=1;jumpStyle=none;shadow=0;" edge="1" parent="1" source="q_sG9YHpF0HVxiTM0cFI-56" target="q_sG9YHpF0HVxiTM0cFI-4">
          <mxGeometry width="50" height="50" relative="1" as="geometry">
            <mxPoint x="900" y="320" as="sourcePoint" />
            <mxPoint x="827" y="234" as="targetPoint" />
          </mxGeometry>
        </mxCell>
        <mxCell id="q_sG9YHpF0HVxiTM0cFI-59" value="Изменение способа оплаты" style="ellipse;whiteSpace=wrap;html=1;rounded=1;" vertex="1" parent="1">
          <mxGeometry x="1310" y="580" width="100" height="60" as="geometry" />
        </mxCell>
        <mxCell id="q_sG9YHpF0HVxiTM0cFI-60" value="Просмотр истории заявлений" style="ellipse;whiteSpace=wrap;html=1;rounded=1;" vertex="1" parent="1">
          <mxGeometry x="693" y="450" width="100" height="60" as="geometry" />
        </mxCell>
        <mxCell id="q_sG9YHpF0HVxiTM0cFI-61" value="" style="endArrow=none;html=1;rounded=1;jumpStyle=none;shadow=0;" edge="1" parent="1" source="q_sG9YHpF0HVxiTM0cFI-60" target="q_sG9YHpF0HVxiTM0cFI-2">
          <mxGeometry width="50" height="50" relative="1" as="geometry">
            <mxPoint x="680" y="390" as="sourcePoint" />
            <mxPoint x="568" y="409" as="targetPoint" />
          </mxGeometry>
        </mxCell>
        <mxCell id="q_sG9YHpF0HVxiTM0cFI-62" value="" style="endArrow=none;html=1;rounded=1;jumpStyle=none;shadow=0;" edge="1" parent="1" source="q_sG9YHpF0HVxiTM0cFI-4" target="q_sG9YHpF0HVxiTM0cFI-60">
          <mxGeometry width="50" height="50" relative="1" as="geometry">
            <mxPoint x="640" y="361" as="sourcePoint" />
            <mxPoint x="528" y="380" as="targetPoint" />
          </mxGeometry>
        </mxCell>
        <mxCell id="q_sG9YHpF0HVxiTM0cFI-64" value="extend" style="endArrow=open;endSize=12;dashed=1;html=1;rounded=1;" edge="1" parent="1" source="q_sG9YHpF0HVxiTM0cFI-59" target="q_sG9YHpF0HVxiTM0cFI-56">
          <mxGeometry width="160" relative="1" as="geometry">
            <mxPoint x="1080" y="471" as="sourcePoint" />
            <mxPoint x="970" y="380" as="targetPoint" />
          </mxGeometry>
        </mxCell>
        <mxCell id="q_sG9YHpF0HVxiTM0cFI-65" value="Настройка уведомлений" style="ellipse;whiteSpace=wrap;html=1;rounded=1;" vertex="1" parent="1">
          <mxGeometry x="1280" y="670" width="100" height="60" as="geometry" />
        </mxCell>
        <mxCell id="q_sG9YHpF0HVxiTM0cFI-66" value="extend" style="endArrow=open;endSize=12;dashed=1;html=1;rounded=1;" edge="1" parent="1" source="q_sG9YHpF0HVxiTM0cFI-65" target="q_sG9YHpF0HVxiTM0cFI-56">
          <mxGeometry width="160" relative="1" as="geometry">
            <mxPoint x="1093" y="561" as="sourcePoint" />
            <mxPoint x="963" y="416" as="targetPoint" />
          </mxGeometry>
        </mxCell>
        <mxCell id="q_sG9YHpF0HVxiTM0cFI-67" value="Журналирование системы" style="ellipse;whiteSpace=wrap;html=1;rounded=1;" vertex="1" parent="1">
          <mxGeometry x="-220" y="420" width="120" height="60" as="geometry" />
        </mxCell>
        <mxCell id="q_sG9YHpF0HVxiTM0cFI-68" value="" style="endArrow=none;html=1;rounded=1;" edge="1" parent="1" target="q_sG9YHpF0HVxiTM0cFI-67" source="q_sG9YHpF0HVxiTM0cFI-6">
          <mxGeometry width="50" height="50" relative="1" as="geometry">
            <mxPoint x="130" y="441" as="sourcePoint" />
            <mxPoint x="-10" y="510" as="targetPoint" />
          </mxGeometry>
        </mxCell>
        <mxCell id="q_sG9YHpF0HVxiTM0cFI-69" value="Отчеты об ошибках системы" style="ellipse;whiteSpace=wrap;html=1;rounded=1;" vertex="1" parent="1">
          <mxGeometry x="-470" y="510" width="150" height="60" as="geometry" />
        </mxCell>
        <mxCell id="q_sG9YHpF0HVxiTM0cFI-70" value="extend" style="endArrow=open;endSize=12;dashed=1;html=1;rounded=1;" edge="1" parent="1" source="q_sG9YHpF0HVxiTM0cFI-69" target="q_sG9YHpF0HVxiTM0cFI-41">
          <mxGeometry x="-0.0015" width="160" relative="1" as="geometry">
            <mxPoint x="-193.5" y="537" as="sourcePoint" />
            <mxPoint x="-6" y="450" as="targetPoint" />
            <mxPoint as="offset" />
          </mxGeometry>
        </mxCell>
        <mxCell id="q_sG9YHpF0HVxiTM0cFI-71" value="Формирование отчета историй заявлений" style="ellipse;whiteSpace=wrap;html=1;rounded=1;" vertex="1" parent="1">
          <mxGeometry x="590" y="760" width="120" height="60" as="geometry" />
        </mxCell>
        <mxCell id="q_sG9YHpF0HVxiTM0cFI-72" value="extend" style="endArrow=open;endSize=12;dashed=1;html=1;rounded=1;" edge="1" parent="1" source="q_sG9YHpF0HVxiTM0cFI-71" target="q_sG9YHpF0HVxiTM0cFI-60">
          <mxGeometry width="160" relative="1" as="geometry">
            <mxPoint x="549" y="721" as="sourcePoint" />
            <mxPoint x="837" y="530" as="targetPoint" />
          </mxGeometry>
        </mxCell>
        <mxCell id="q_sG9YHpF0HVxiTM0cFI-75" value="Просмотр данных зарегистрированных ТС" style="ellipse;whiteSpace=wrap;html=1;rounded=1;shadow=0;" vertex="1" parent="1">
          <mxGeometry x="1169" y="767" width="141" height="60" as="geometry" />
        </mxCell>
        <mxCell id="q_sG9YHpF0HVxiTM0cFI-78" value="include" style="endArrow=open;endSize=12;dashed=1;html=1;rounded=1;" edge="1" parent="1" source="q_sG9YHpF0HVxiTM0cFI-75" target="q_sG9YHpF0HVxiTM0cFI-56">
          <mxGeometry x="0.0021" width="160" relative="1" as="geometry">
            <mxPoint x="1227.5" y="730" as="sourcePoint" />
            <mxPoint x="1080.5" y="626" as="targetPoint" />
            <mxPoint as="offset" />
          </mxGeometry>
        </mxCell>
        <mxCell id="q_sG9YHpF0HVxiTM0cFI-79" value="Управление личным кабинетом" style="ellipse;whiteSpace=wrap;html=1;rounded=1;" vertex="1" parent="1">
          <mxGeometry x="170" y="530" width="100" height="60" as="geometry" />
        </mxCell>
        <mxCell id="q_sG9YHpF0HVxiTM0cFI-80" value="" style="endArrow=none;html=1;rounded=1;jumpStyle=none;shadow=0;" edge="1" parent="1" source="q_sG9YHpF0HVxiTM0cFI-79" target="q_sG9YHpF0HVxiTM0cFI-2">
          <mxGeometry width="50" height="50" relative="1" as="geometry">
            <mxPoint x="511" y="190" as="sourcePoint" />
            <mxPoint x="669" y="290" as="targetPoint" />
          </mxGeometry>
        </mxCell>
        <mxCell id="q_sG9YHpF0HVxiTM0cFI-81" value="Изменение логина и пароля" style="ellipse;whiteSpace=wrap;html=1;rounded=1;" vertex="1" parent="1">
          <mxGeometry x="1365" y="490" width="100" height="60" as="geometry" />
        </mxCell>
        <mxCell id="q_sG9YHpF0HVxiTM0cFI-82" value="extend" style="endArrow=open;endSize=12;dashed=1;html=1;rounded=1;" edge="1" parent="1" source="q_sG9YHpF0HVxiTM0cFI-81" target="q_sG9YHpF0HVxiTM0cFI-56">
          <mxGeometry width="160" relative="1" as="geometry">
            <mxPoint x="1135" y="381" as="sourcePoint" />
            <mxPoint x="1220" y="472" as="targetPoint" />
          </mxGeometry>
        </mxCell>
        <mxCell id="q_sG9YHpF0HVxiTM0cFI-83" value="Изменение логина и пароля" style="ellipse;whiteSpace=wrap;html=1;rounded=1;" vertex="1" parent="1">
          <mxGeometry x="-70" y="610" width="100" height="60" as="geometry" />
        </mxCell>
        <mxCell id="q_sG9YHpF0HVxiTM0cFI-84" value="extend" style="endArrow=open;endSize=12;dashed=1;html=1;rounded=1;" edge="1" parent="1" source="q_sG9YHpF0HVxiTM0cFI-83" target="q_sG9YHpF0HVxiTM0cFI-79">
          <mxGeometry width="160" relative="1" as="geometry">
            <mxPoint x="-125" y="479" as="sourcePoint" />
            <mxPoint x="-40" y="570" as="targetPoint" />
          </mxGeometry>
        </mxCell>
        <mxCell id="q_sG9YHpF0HVxiTM0cFI-85" value="Управление настройками" style="ellipse;whiteSpace=wrap;html=1;rounded=1;" vertex="1" parent="1">
          <mxGeometry x="-20" y="680" width="100" height="60" as="geometry" />
        </mxCell>
        <mxCell id="q_sG9YHpF0HVxiTM0cFI-86" value="extend" style="endArrow=open;endSize=12;dashed=1;html=1;rounded=1;" edge="1" parent="1" source="q_sG9YHpF0HVxiTM0cFI-85" target="q_sG9YHpF0HVxiTM0cFI-79">
          <mxGeometry width="160" relative="1" as="geometry">
            <mxPoint x="-115" y="604" as="sourcePoint" />
            <mxPoint x="186" y="700" as="targetPoint" />
          </mxGeometry>
        </mxCell>
      </root>
    </mxGraphModel>
  </diagram>
</mxfile>
